<?xml version="1.0" standalone="no"?>
<!DOCTYPE svg PUBLIC "-//W3C//DTD SVG 20010904//EN"
 "http://www.w3.org/TR/2001/REC-SVG-20010904/DTD/svg10.dtd">
<svg version="1.0" xmlns="http://www.w3.org/2000/svg"
 width="260.000000pt" height="260.000000pt" viewBox="0 0 260.000000 260.000000"
 preserveAspectRatio="xMidYMid meet">
<metadata>
Created by potrace 1.14, written by Peter Selinger 2001-2017
</metadata>
<g transform="translate(0.000000,260.000000) scale(0.100000,-0.100000)"
fill="#000000" stroke="none">
<path d="M1105 2541 c-5 -4 -33 -8 -92 -13 -13 -1 -23 -6 -23 -12 0 -5 -3 -6
-7 -3 -3 4 -13 1 -21 -6 -13 -9 -14 -9 -8 0 5 9 2 11 -8 7 -9 -3 -16 -10 -16
-16 0 -5 -4 -6 -10 -3 -5 3 -10 2 -10 -3 0 -5 -6 -9 -12 -9 -21 -1 -75 -27
-79 -38 -2 -5 -8 -9 -12 -7 -5 1 -6 -2 -3 -7 3 -5 -2 -15 -11 -22 -12 -10 -14
-10 -9 -1 4 6 5 12 2 12 -3 0 -10 -10 -17 -21 -9 -17 -8 -20 3 -14 7 5 3 -3
-10 -17 -12 -13 -19 -28 -15 -31 3 -4 1 -7 -6 -7 -7 0 -9 -4 -6 -10 3 -5 -1
-10 -9 -10 -10 0 -13 -6 -9 -17 5 -12 3 -14 -7 -8 -10 6 -12 4 -7 -8 3 -9 2
-19 -4 -23 -6 -3 -8 -11 -6 -17 2 -7 -3 -18 -12 -25 -12 -10 -13 -12 -1 -6 12
6 13 5 4 -7 -6 -8 -10 -22 -9 -31 2 -10 -2 -18 -8 -18 -5 0 -7 -3 -4 -7 4 -3
1 -13 -6 -21 -10 -13 -9 -14 3 -7 12 6 12 5 3 -5 -6 -7 -9 -19 -6 -28 4 -10 2
-13 -5 -8 -8 5 -10 2 -6 -8 3 -9 1 -16 -6 -16 -6 0 -9 -4 -6 -8 3 -5 -2 -21
-9 -36 -8 -16 -12 -32 -9 -37 3 -5 0 -9 -5 -9 -6 0 -10 -3 -10 -7 1 -5 0 -11
-1 -15 -1 -5 -3 -14 -4 -20 -1 -8 -14 -12 -36 -10 -19 1 -53 4 -75 6 -25 2
-47 -3 -57 -12 -10 -8 -18 -12 -18 -7 0 4 -8 1 -17 -6 -14 -12 -16 -12 -9 1 6
12 4 11 -6 -1 -7 -9 -19 -14 -27 -11 -8 3 -11 0 -7 -7 4 -6 3 -11 -2 -11 -16
0 -53 -38 -50 -51 2 -8 -3 -13 -9 -12 -12 3 -17 -9 -14 -29 0 -5 -4 -8 -10 -8
-5 0 -7 -4 -4 -10 3 -5 -1 -10 -10 -10 -9 0 -13 -5 -10 -10 4 -6 3 -16 -2 -23
-5 -7 -9 -36 -8 -64 1 -29 -3 -53 -8 -53 -4 0 -5 -10 -2 -21 5 -16 4 -19 -6
-14 -9 6 -11 3 -6 -8 3 -10 2 -17 -4 -17 -6 0 -8 -4 -5 -8 2 -4 1 -14 -4 -22
-5 -9 -4 -20 3 -29 10 -12 9 -13 -3 -6 -12 7 -13 6 -4 -6 6 -8 10 -33 9 -56 0
-23 2 -40 5 -38 9 6 5 -189 -4 -204 -7 -11 -6 -12 5 -6 11 7 12 6 3 -6 -11
-14 -13 -196 -3 -214 4 -5 5 -31 4 -57 -1 -26 2 -45 7 -42 4 3 6 -11 3 -30 -2
-20 0 -36 5 -36 5 0 7 -13 5 -29 -2 -19 2 -31 11 -35 9 -3 12 -10 9 -16 -3 -5
-2 -10 4 -10 6 0 8 -7 5 -15 -4 -9 0 -15 10 -15 9 0 16 -7 16 -16 0 -8 4 -13
9 -10 5 4 11 1 13 -5 2 -7 16 -12 30 -13 14 -1 34 -8 44 -16 16 -13 17 -13 9
0 -7 12 -6 13 6 4 8 -6 23 -9 34 -7 11 2 32 5 47 7 14 1 33 8 42 15 26 22 53
-2 51 -44 -1 -20 1 -38 5 -40 3 -2 5 -28 5 -57 -1 -29 1 -57 4 -63 3 -5 6 -21
6 -35 0 -14 5 -31 9 -39 7 -10 6 -12 -4 -6 -10 6 -11 4 -4 -6 9 -14 14 -34 16
-56 1 -7 6 -13 11 -13 5 0 7 -7 3 -15 -3 -8 -1 -15 4 -15 6 0 9 -4 8 -9 -2 -5
9 -20 24 -34 15 -14 24 -28 20 -32 -4 -4 2 -5 13 -3 13 2 19 -2 17 -10 -1 -8
2 -11 7 -8 12 8 42 -4 36 -14 -3 -4 2 -11 11 -14 8 -3 12 -2 9 4 -3 6 1 7 9 4
9 -3 14 -9 11 -13 -2 -4 21 -7 51 -6 30 1 57 -2 60 -7 3 -4 9 -6 14 -3 5 3 20
1 35 -5 19 -7 24 -7 19 2 -5 8 -2 9 9 5 10 -3 17 -3 17 2 0 4 7 8 15 9 8 1 22
3 30 4 8 1 15 6 15 11 0 5 7 7 15 3 8 -3 19 2 24 12 5 9 11 15 13 13 6 -8 48
11 43 20 -4 5 2 9 11 9 10 0 14 3 11 7 -4 3 1 12 11 20 10 9 11 12 2 7 -10 -5
-8 1 5 16 12 14 14 20 5 15 -13 -8 -13 -7 -1 8 7 9 10 17 6 17 -4 0 -1 8 6 17
12 15 12 16 -1 8 -13 -8 -13 -7 0 9 14 18 23 146 10 146 -4 0 -6 22 -6 48 l1
48 42 0 c23 0 40 -2 38 -6 -6 -9 88 -5 104 4 10 7 12 6 6 -4 -6 -10 -4 -11 6
-4 16 10 44 14 111 17 25 1 44 5 41 9 -2 5 6 6 19 4 16 -2 23 -9 22 -25 -1
-11 2 -21 6 -21 4 0 6 -14 5 -30 -1 -17 1 -33 5 -35 5 -3 7 -21 6 -40 -2 -19
1 -32 5 -29 5 3 7 -5 6 -18 -2 -13 3 -29 12 -36 9 -8 11 -11 4 -7 -9 4 -8 -2
2 -21 7 -15 11 -33 8 -40 -3 -8 1 -14 11 -14 9 0 15 -3 14 -8 -4 -14 14 -52
22 -47 5 3 12 -4 15 -16 4 -11 9 -18 12 -15 3 3 14 -5 25 -17 11 -12 16 -16
12 -8 -5 10 -3 12 7 5 16 -10 129 -13 129 -3 0 4 13 5 30 4 16 -1 27 2 24 7
-3 5 6 7 20 4 18 -3 24 -1 20 6 -5 7 -2 9 8 5 9 -3 21 0 28 6 10 9 11 9 6 -3
-4 -8 0 -6 8 4 9 11 16 16 16 12 0 -5 8 -2 17 5 15 12 16 12 8 -1 -8 -13 -7
-13 8 -1 10 8 16 16 13 18 -2 2 9 18 25 35 15 17 26 35 23 40 -3 4 0 8 6 8 6
0 9 4 5 9 -3 5 -1 12 4 16 6 3 8 12 4 20 -3 8 0 15 6 15 7 0 9 10 7 25 -3 14
-1 25 3 25 4 0 6 24 6 52 -1 29 1 58 4 63 8 15 8 246 -1 251 -4 3 -5 23 -3 45
2 22 1 38 -3 35 -5 -3 -8 45 -7 105 0 61 -2 112 -6 115 -4 2 -6 35 -4 74 1 38
-1 70 -5 70 -4 0 -6 16 -5 35 1 19 -3 35 -8 35 -5 0 -4 6 2 14 7 8 8 17 3 20
-4 2 -8 34 -7 70 0 36 -2 66 -6 66 -4 0 -6 16 -4 35 1 19 -1 35 -5 35 -3 0 -6
17 -5 38 1 20 -4 46 -11 57 -6 11 -10 28 -9 38 2 9 -1 17 -6 17 -6 0 -7 5 -4
10 3 6 2 10 -4 10 -6 0 -8 7 -5 15 4 8 10 12 15 9 5 -3 9 0 9 6 0 6 4 9 9 6 5
-3 21 6 35 19 15 14 24 25 20 25 -3 0 2 8 13 17 10 10 14 16 8 13 -6 -3 1 6
15 19 14 13 18 20 10 15 -13 -7 -13 -5 -1 9 7 9 10 17 6 17 -4 0 -1 8 6 17 12
15 12 16 -1 8 -12 -7 -13 -6 -4 6 5 8 10 39 9 69 -1 30 2 65 7 78 4 12 4 22
-2 22 -5 0 -7 7 -4 15 4 8 1 15 -6 15 -6 0 -9 4 -5 9 3 5 1 12 -5 16 -6 4 -8
10 -5 15 3 5 0 12 -6 16 -8 5 -9 3 -4 -6 5 -9 4 -11 -3 -6 -7 4 -12 13 -12 21
0 8 -5 17 -12 21 -7 5 -8 2 -3 -7 4 -8 -2 -4 -14 9 -12 12 -26 22 -32 22 -6 0
-8 4 -5 9 3 5 -1 12 -10 15 -10 4 -13 2 -8 -6 4 -7 3 -8 -4 -4 -7 4 -12 14
-12 21 0 9 -6 12 -17 8 -10 -4 -14 -2 -10 4 4 6 0 14 -9 17 -10 4 -13 2 -9 -7
4 -6 0 -5 -7 3 -25 28 -62 56 -53 40 5 -9 -1 -7 -15 5 -14 12 -20 14 -15 5 5
-9 -1 -7 -14 5 -13 11 -26 19 -30 19 -3 -1 -5 2 -4 7 2 4 -5 5 -14 2 -11 -4
-14 -3 -9 5 5 8 -2 11 -24 8 -17 -2 -33 1 -36 6 -3 5 -12 7 -20 4 -15 -6 -46
32 -38 46 3 4 -2 8 -11 8 -9 0 -14 4 -11 8 2 4 -5 9 -17 9 -12 1 -26 9 -32 17
-6 8 -17 16 -25 18 -7 2 -22 11 -32 21 -10 10 -23 15 -28 12 -6 -4 -10 -1 -10
5 0 6 -4 8 -10 5 -5 -3 -10 -2 -10 4 0 5 -12 8 -27 7 -16 -2 -34 1 -42 8 -12
9 -13 8 -6 -3 6 -10 4 -12 -6 -5 -8 4 -39 9 -69 9 -30 0 -61 4 -69 9 -11 7
-12 6 -6 -5 7 -11 6 -12 -6 -3 -8 6 -22 10 -31 9 -10 -2 -20 0 -22 4 -3 4 -30
6 -60 5 -31 -1 -54 1 -52 5 5 7 -82 10 -89 2z"/>
</g>
</svg>
